<svg width="208" height="28" viewBox="0 0 208 28" fill="none" xmlns="http://www.w3.org/2000/svg">
<g clip-path="url(#clip0)">
<path d="M184.574 0.916992V27.8399H189.589V16.8084H202.857V27.7627H207.871V7.08842C207.871 3.69413 205.094 0.916992 201.7 0.916992H184.574ZM189.589 11.7941V5.93128H199.771C201.468 5.93128 202.857 7.31985 202.857 9.01699V11.7941H189.589Z" fill="white"/>
<path d="M179.868 5.93128V0.916992H165.365V5.93128H170.148V22.9027H165.365V27.917H170.148H175.163H179.868V22.9027H175.163V5.93128H179.868Z" fill="white"/>
<path d="M23.3455 5.93128V0.916992H6.21977C2.82548 0.916992 0.0483398 3.69413 0.0483398 7.08842V13.7999C0.0483398 15.497 1.43691 16.8856 3.13405 16.8856H18.3312V20.4341C18.3312 21.7456 17.3283 22.7484 16.0169 22.7484H0.0483398V27.7627H17.1741C20.5683 27.7627 23.3455 24.9856 23.3455 21.5913V16.8084V14.8027C23.3455 13.1056 21.9569 11.7941 20.3369 11.7941H5.06263V8.24556C5.06263 6.93413 6.06548 5.93128 7.37691 5.93128H23.3455Z" fill="white"/>
<path d="M46.1024 0.916992V22.7484H35.9196C34.2224 22.7484 32.8339 21.3598 32.8339 19.6627V0.916992H27.8196V21.6684C27.8196 25.0627 30.5967 27.8399 33.991 27.8399H46.1024H49.3424H51.1939V0.916992H46.1024Z" fill="white"/>
<path d="M101.26 0.916992V22.7484H91.077C89.3799 22.7484 87.9913 21.3598 87.9913 19.6627V0.916992H82.9771V21.6684C82.9771 25.0627 85.7542 27.8399 89.1485 27.8399H101.26H104.5H106.351V0.916992H101.26Z" fill="white"/>
<path d="M78.1942 9.32556V7.08842C78.1942 3.69413 75.417 0.916992 72.0227 0.916992H60.6056H59.5256H55.5913V27.8399H59.6027H60.6827H72.8713C76.2656 27.8399 79.0427 25.0627 79.0427 21.6684V19.4313C79.0427 16.1913 76.0342 14.417 73.257 14.417C75.957 14.3398 78.1942 12.1027 78.1942 9.32556ZM73.9513 19.1227V20.4341C73.9513 21.7456 72.9485 22.7484 71.637 22.7484H60.6056V16.8084H71.637C72.9485 16.8084 73.9513 17.8884 73.9513 19.1227ZM70.8656 11.7941H60.6056V5.93128H70.8656C72.177 5.93128 73.1799 6.93413 73.1799 8.24556V9.47985C73.1799 10.7913 72.177 11.7941 70.8656 11.7941Z" fill="white"/>
<path d="M160.66 9.32556V7.08842C160.66 3.69413 157.883 0.916992 154.488 0.916992H143.071H141.991H137.98V27.8399H141.991H143.071H155.26C158.654 27.8399 161.431 25.0627 161.431 21.6684V19.4313C161.431 16.1913 158.423 14.417 155.645 14.417C158.423 14.3398 160.66 12.1027 160.66 9.32556ZM156.417 19.1227V20.4341C156.417 21.7456 155.414 22.7484 154.103 22.7484H143.071V16.8084H154.103C155.337 16.8084 156.417 17.8884 156.417 19.1227ZM153.331 11.7941H143.071V5.93128H153.331C154.643 5.93128 155.645 6.93413 155.645 8.24556V9.47985C155.645 10.7913 154.565 11.7941 153.331 11.7941Z" fill="white"/>
<path d="M128.105 27.8399H134.045L127.103 16.8856H127.18C130.574 16.8856 133.351 14.1084 133.351 10.7141V7.08842C133.351 3.69413 130.574 0.916992 127.18 0.916992H115.763H110.748V27.8399H115.763V16.8856H121.163L128.105 27.8399ZM115.763 5.93128H126.023C127.334 5.93128 128.337 6.93413 128.337 8.24556V9.47985C128.337 10.7913 127.334 11.7941 126.023 11.7941H115.763V5.93128Z" fill="white"/>
</g>
<defs>
<clipPath id="clip0">
<rect width="207.823" height="27" fill="white" transform="translate(0.0483398 0.916992)"/>
</clipPath>
</defs>
</svg>
