<svg xmlns="http://www.w3.org/2000/svg" xmlns:xlink="http://www.w3.org/1999/xlink" width="40" height="40"><defs><rect id="a" width="40" height="40" rx="2"/></defs><g fill="none" fill-rule="evenodd"><mask id="b" fill="#fff"><use xlink:href="#a"/></mask><g mask="url(#b)"><path fill="#333" d="M-2 43h45V-2H-2z"/><path fill="#000" d="M51 47H-8l59-59z"/><path fill="#FFF" d="M28.556 13.692V10H15.702c-2.551 0-4.652 2.018-4.652 4.578v4.973c0 1.28 1.05 2.264 2.301 2.264h11.403v2.659c0 .935-.8 1.723-1.75 1.723H11v3.692h12.855c2.55 0 4.65-2.019 4.65-4.578v-4.973c0-1.23-1-2.215-2.25-2.215H14.8v-2.658c0-.936.801-1.724 1.75-1.724h12.005v-.049z"/></g></g></svg>