<svg xmlns="http://www.w3.org/2000/svg" xmlns:xlink="http://www.w3.org/1999/xlink" width="50" height="50" viewBox="0 0 50 50">
  <defs>
    <rect id="suburbia_sticker_white-a" width="46.667" height="46.667" rx="4"/>
  </defs>
  <g fill="none" fill-rule="evenodd">
    <rect width="50" height="50" fill="#222" rx="6"/>
    <g transform="translate(1.667 1.667)">
      <mask id="suburbia_sticker_white-b" fill="#fff">
        <use xlink:href="#suburbia_sticker_white-a"/>
      </mask>
      <use fill="#F5F5F5" xlink:href="#suburbia_sticker_white-a"/>
      <polygon fill="#FFF" points="0 46.667 46.667 46.667 0 0" mask="url(#suburbia_sticker_white-b)" transform="matrix(1 0 0 -1 0 46.667)"/>
      <path fill="#222" d="M34.1666667,15.4744224 L34.1666667,10.8333333 L18.9126306,10.8333333 C15.8855651,10.8333333 13.3926876,13.370462 13.3926876,16.5882838 L13.3926876,22.8382838 C13.3926876,24.4471947 14.6391263,25.6848185 16.122982,25.6848185 L29.6557455,25.6848185 L29.6557455,29.0264026 C29.6557455,30.2021452 28.7060779,31.1922442 27.5783476,31.1922442 L13.3333333,31.1922442 L13.3333333,35.8333333 L28.5873694,35.8333333 C31.6144349,35.8333333 34.1073124,33.2962046 34.1073124,30.0783828 L34.1073124,25.6848185 L34.1073124,23.8283828 C34.1073124,22.2813531 32.9202279,21.0437294 31.4363723,21.0437294 L17.8442545,21.0437294 L17.8442545,17.7021452 C17.8442545,16.5264026 18.7939221,15.5363036 19.9216524,15.5363036 L34.1666667,15.5363036 L34.1666667,15.4744224 Z" mask="url(#suburbia_sticker_white-b)"/>
    </g>
  </g>
</svg>
